<?xml version="1.0"?>
<svg xmlns="http://www.w3.org/2000/svg" xmlns:xlink="http://www.w3.org/1999/xlink" version="1.1" id="Capa_1" x="0px" y="0px" viewBox="0 0 512.206 512.206" style="enable-background:new 0 0 512.206 512.206;" xml:space="preserve" width="512px" height="512px" class="hovered-paths"><g><g>
	<path d="M149.506,428.936l-104.08-118.02   c-29.428-33.433-24.455-76.708,5.886-107.548c14.869-14.246,35.791-22.069,56.324-21.343c20.317,0.719,36.03,6.423,50.231,21.547   c10.646,10.617,20.861,23.089,30.836,34.403l98.156-99.139H15c-8.284,0-15,6.716-15,15v320.881c0,8.284,6.716,15,15,15h320.88   c8.284,0,15-6.716,15-15v-178.36L215.809,431.841C197.179,450.639,166.593,449.147,149.506,428.936z" data-original="#000000" class="hovered-path active-path" data-old_color="#000000" fill="#5F7D95"/>
	<path d="M495.636,34.865c-17.374-17.543-48.061-15.838-65.073,1.344L187.384,281.823   c-4.046-4.586-47.044-53.451-48.374-54.81c-17.647-19.28-48.063-20.185-66.955-2.083c-19.225,17.573-21.812,46.273-4.245,66.181   L172.358,409.6c5.983,7.076,16.081,7.355,22.241,1.147C295.539,308.796,399.253,206.91,498.59,103.711   C518.458,83.65,515.822,53.584,495.636,34.865z" data-original="#000000" class="hovered-path active-path" data-old_color="#000000" fill="#5F7D95"/>
</g></g> </svg>
